# Blender v2.82 (sub 7) OBJ File: 'Models.blend'
# www.blender.org
mtllib bubble_research.mtl
o arrow_Sphere
v 0.000000 1.312347 -0.380706
v 0.095177 1.642048 -0.164851
v 0.164851 1.502700 -0.285530
v 0.190353 1.312347 -0.329701
v -0.000000 1.693053 -0.000000
v 0.164851 1.642048 -0.095177
v 0.285530 1.502700 -0.164851
v 0.329701 1.312347 -0.190353
v 0.190353 1.642048 -0.000000
v 0.329701 1.502700 -0.000000
v 0.380706 1.312347 -0.000000
v 0.164851 1.642048 0.095177
v 0.285530 1.502700 0.164851
v 0.329701 1.312347 0.190353
v 0.095177 1.642048 0.164851
v 0.164851 1.502700 0.285530
v 0.190353 1.312347 0.329701
v -0.000000 1.642048 0.190353
v -0.000000 1.502700 0.329701
v -0.000000 1.312347 0.380706
v -0.000000 0.000827 -0.000000
v -0.095177 1.642048 0.164851
v -0.164851 1.502700 0.285530
v -0.190353 1.312347 0.329701
v -0.164851 1.642048 0.095176
v -0.285530 1.502700 0.164851
v -0.329701 1.312347 0.190353
v -0.190353 1.642048 -0.000000
v -0.329701 1.502700 -0.000000
v -0.380706 1.312347 -0.000000
v -0.164851 1.642048 -0.095177
v -0.285530 1.502700 -0.164851
v -0.329701 1.312347 -0.190353
v -0.095177 1.642048 -0.164851
v -0.164851 1.502700 -0.285530
v -0.190353 1.312347 -0.329701
v 0.000000 1.642048 -0.190353
v 0.000000 1.502700 -0.329701
vt 0.007074 0.024608
vt 0.007074 0.024608
vt 0.007074 0.024608
vt 0.007074 0.024608
vt 0.007074 0.024608
vt 0.007074 0.024608
vt 0.007074 0.024608
vt 0.007074 0.024608
vt 0.007074 0.024608
vt 0.007074 0.024608
vt 0.007074 0.024608
vt 0.007074 0.024608
vt 0.007074 0.024608
vt 0.007074 0.024608
vt 0.007074 0.024608
vt 0.007074 0.024608
vt 0.007074 0.024608
vt 0.007074 0.024608
vt 0.007074 0.024608
vt 0.007074 0.024608
vt 0.007074 0.024608
vt 0.007074 0.024608
vt 0.007074 0.024608
vt 0.007074 0.024608
vt 0.007074 0.024608
vt 0.007074 0.024608
vt 0.007074 0.024608
vt 0.007074 0.024608
vt 0.007074 0.024608
vt 0.007074 0.024608
vt 0.007074 0.024608
vt 0.007074 0.024608
vt 0.007074 0.024608
vt 0.007074 0.024608
vt 0.007074 0.024608
vt 0.007074 0.024608
vt 0.007074 0.024608
vt 0.007074 0.024608
vn 0.0000 -0.4637 0.8860
vn -0.4430 -0.4637 0.7673
vn -0.3015 -0.7977 0.5223
vn -0.0000 -0.7977 0.6030
vn -0.0000 0.1688 0.9856
vn -0.4928 0.1688 0.8536
vn 0.0000 -1.0000 -0.0000
vn -0.8536 0.1688 0.4928
vn -0.7673 -0.4637 0.4430
vn -0.5223 -0.7977 0.3015
vn -0.9856 0.1688 0.0000
vn 0.0000 1.0000 0.0000
vn -0.8860 -0.4637 -0.0000
vn -0.6030 -0.7977 0.0000
vn -0.8536 0.1688 -0.4928
vn -0.7673 -0.4637 -0.4430
vn -0.5223 -0.7977 -0.3015
vn -0.4928 0.1688 -0.8536
vn -0.3015 -0.7977 -0.5223
vn -0.0000 0.1688 -0.9856
vn -0.4430 -0.4637 -0.7673
vn 0.4928 0.1688 -0.8536
vn 0.0000 -0.4637 -0.8860
vn 0.0000 -0.7977 -0.6030
vn 0.9856 0.1688 -0.0000
vn 0.8536 0.1688 0.4928
vn 0.8536 0.1688 -0.4928
vn 0.4430 -0.4637 -0.7673
vn 0.3015 -0.7977 -0.5223
vn 0.7673 -0.4637 -0.4430
vn 0.5223 -0.7977 -0.3015
vn 0.8860 -0.4637 0.0000
vn 0.6030 -0.7977 0.0000
vn 0.4928 0.1688 0.8536
vn 0.7673 -0.4637 0.4430
vn 0.5223 -0.7977 0.3015
vn 0.4430 -0.4637 0.7673
vn 0.3015 -0.7977 0.5223
usemtl None
s 1
f 38/1/1 3/2/2 2/3/3 37/4/4
f 1/5/5 4/6/6 3/2/2 38/1/1
f 37/4/4 2/3/3 5/7/7
f 4/6/6 8/8/8 7/9/9 3/2/2
f 2/3/3 6/10/10 5/7/7
f 11/11/11 8/8/8 21/12/12
f 3/2/2 7/9/9 6/10/10 2/3/3
f 8/8/8 11/11/11 10/13/13 7/9/9
f 6/10/10 9/14/14 5/7/7
f 14/15/15 11/11/11 21/12/12
f 7/9/9 10/13/13 9/14/14 6/10/10
f 11/11/11 14/15/15 13/16/16 10/13/13
f 9/14/14 12/17/17 5/7/7
f 17/18/18 14/15/15 21/12/12
f 10/13/13 13/16/16 12/17/17 9/14/14
f 12/17/17 15/19/19 5/7/7
f 20/20/20 17/18/18 21/12/12
f 13/16/16 16/21/21 15/19/19 12/17/17
f 14/15/15 17/18/18 16/21/21 13/16/16
f 4/6/6 1/5/5 21/12/12
f 21/12/12 24/22/22 20/20/20
f 16/21/21 19/23/23 18/24/24 15/19/19
f 17/18/18 20/20/20 19/23/23 16/21/21
f 15/19/19 18/24/24 5/7/7
f 30/25/25 21/12/12 33/26/26
f 21/12/12 27/27/27 24/22/22
f 19/23/23 23/28/28 22/29/29 18/24/24
f 20/20/20 24/22/22 23/28/28 19/23/23
f 18/24/24 22/29/29 5/7/7
f 21/12/12 30/25/25 27/27/27
f 23/28/28 26/30/30 25/31/31 22/29/29
f 24/22/22 27/27/27 26/30/30 23/28/28
f 22/29/29 25/31/31 5/7/7
f 26/30/30 29/32/32 28/33/33 25/31/31
f 21/12/12 36/34/34 33/26/26
f 27/27/27 30/25/25 29/32/32 26/30/30
f 25/31/31 28/33/33 5/7/7
f 29/32/32 32/35/35 31/36/36 28/33/33
f 30/25/25 33/26/26 32/35/35 29/32/32
f 28/33/33 31/36/36 5/7/7
f 33/26/26 36/34/34 35/37/37 32/35/35
f 31/36/36 34/38/38 5/7/7
f 21/12/12 1/5/5 36/34/34
f 32/35/35 35/37/37 34/38/38 31/36/36
f 36/34/34 1/5/5 38/1/1 35/37/37
f 34/38/38 37/4/4 5/7/7
f 35/37/37 38/1/1 37/4/4 34/38/38
f 8/8/8 4/6/6 21/12/12
o bubble_Sphere.009
v 0.000000 1.312347 -0.317361
v 0.000000 1.037504 -0.158681
v 0.079340 1.587189 -0.137421
v 0.137421 1.471027 -0.238021
v 0.158681 1.312347 -0.274843
v 0.137421 1.153666 -0.238021
v 0.079340 1.037504 -0.137421
v -0.000000 1.629708 -0.000000
v 0.137421 1.587189 -0.079340
v 0.238021 1.471027 -0.137421
v 0.274843 1.312347 -0.158681
v 0.238021 1.153666 -0.137421
v 0.137421 1.037504 -0.079340
v 0.158680 1.587189 -0.000000
v 0.274843 1.471027 -0.000000
v 0.317361 1.312347 -0.000000
v 0.274843 1.153666 -0.000000
v 0.158680 1.037504 -0.000000
v 0.137421 1.587189 0.079340
v 0.238021 1.471027 0.137421
v 0.274843 1.312347 0.158680
v 0.238021 1.153666 0.137421
v 0.137421 1.037504 0.079340
v 0.079340 1.587189 0.137421
v 0.137421 1.471027 0.238021
v 0.158680 1.312347 0.274843
v 0.137421 1.153666 0.238021
v 0.079340 1.037504 0.137421
v -0.000000 1.587189 0.158680
v -0.000000 1.471027 0.274843
v -0.000000 1.312347 0.317361
v -0.000000 1.153666 0.274843
v 0.000000 1.037504 0.158680
v 0.000000 0.994986 -0.000000
v -0.079340 1.587189 0.137421
v -0.137421 1.471027 0.238021
v -0.158681 1.312347 0.274843
v -0.137421 1.153666 0.238021
v -0.079340 1.037504 0.137421
v -0.137421 1.587189 0.079340
v -0.238021 1.471027 0.137421
v -0.274843 1.312347 0.158680
v -0.238021 1.153666 0.137421
v -0.137421 1.037504 0.079340
v -0.158680 1.587189 -0.000000
v -0.274843 1.471027 -0.000000
v -0.317361 1.312347 -0.000000
v -0.274843 1.153666 -0.000000
v -0.158680 1.037504 -0.000000
v -0.137421 1.587189 -0.079340
v -0.238021 1.471027 -0.137421
v -0.274843 1.312347 -0.158681
v -0.238021 1.153666 -0.137421
v -0.137421 1.037504 -0.079340
v -0.079340 1.587189 -0.137421
v -0.137421 1.471027 -0.238021
v -0.158680 1.312347 -0.274843
v -0.137421 1.153666 -0.238021
v -0.079340 1.037504 -0.137421
v 0.000000 1.587189 -0.158681
v 0.000000 1.471027 -0.274843
v 0.000000 1.153666 -0.274843
vt 0.993932 0.016396
vt 0.993932 0.016396
vt 0.993932 0.016396
vt 0.993932 0.016396
vt 0.993932 0.016396
vt 0.993932 0.016396
vt 0.993932 0.016396
vt 0.993932 0.016396
vt 0.993932 0.016396
vt 0.993932 0.016396
vt 0.993932 0.016396
vt 0.993932 0.016396
vt 0.993932 0.016396
vt 0.993932 0.016396
vt 0.993932 0.016396
vt 0.993932 0.016396
vt 0.993932 0.016396
vt 0.993932 0.016396
vt 0.993932 0.016396
vt 0.993932 0.016396
vt 0.993932 0.016396
vt 0.993932 0.016396
vt 0.993932 0.016396
vt 0.993932 0.016396
vt 0.993932 0.016396
vt 0.993932 0.016396
vt 0.993932 0.016396
vt 0.993932 0.016396
vt 0.993932 0.016396
vt 0.993932 0.016396
vt 0.993932 0.016396
vt 0.993932 0.016396
vt 0.993932 0.016396
vt 0.993932 0.016396
vt 0.993932 0.016396
vt 0.993932 0.016396
vt 0.993932 0.016396
vt 0.993932 0.016396
vt 0.993932 0.016396
vt 0.993932 0.016396
vt 0.993932 0.016396
vt 0.993932 0.016396
vt 0.993932 0.016396
vt 0.993932 0.016396
vt 0.993932 0.016396
vt 0.993932 0.016396
vt 0.993932 0.016396
vt 0.993932 0.016396
vt 0.993932 0.016396
vt 0.993932 0.016396
vt 0.993932 0.016396
vt 0.993932 0.016396
vt 0.993932 0.016396
vt 0.993932 0.016396
vt 0.993932 0.016396
vt 0.993932 0.016396
vt 0.993932 0.016396
vt 0.993932 0.016396
vt 0.993932 0.016396
vt 0.993932 0.016396
vt 0.993932 0.016396
vt 0.993932 0.016396
vn 0.0000 -0.4637 0.8860
vn -0.4430 -0.4637 0.7673
vn -0.3015 -0.7977 0.5223
vn -0.0000 -0.7977 0.6030
vn 0.0000 0.7977 0.6030
vn -0.3015 0.7977 0.5223
vn -0.4430 0.4637 0.7673
vn 0.0000 0.4637 0.8860
vn 0.0000 0.0000 1.0000
vn -0.5000 -0.0000 0.8660
vn 0.0000 -1.0000 -0.0000
vn 0.0000 1.0000 -0.0000
vn -0.5222 0.7977 0.3016
vn -0.7673 0.4637 0.4430
vn -0.8660 0.0000 0.5000
vn -0.7673 -0.4637 0.4430
vn -0.5223 -0.7977 0.3015
vn -0.6030 0.7977 0.0000
vn -0.8860 0.4637 -0.0000
vn -1.0000 0.0000 0.0000
vn -0.8860 -0.4637 -0.0000
vn -0.6030 -0.7977 -0.0000
vn -0.8660 0.0000 -0.5000
vn -0.7673 -0.4637 -0.4430
vn -0.5223 -0.7977 -0.3015
vn -0.5223 0.7977 -0.3015
vn -0.7673 0.4637 -0.4430
vn -0.3015 -0.7977 -0.5223
vn -0.3015 0.7977 -0.5223
vn -0.4430 0.4637 -0.7673
vn -0.5000 0.0000 -0.8660
vn -0.4430 -0.4637 -0.7673
vn 0.0000 0.7977 -0.6030
vn -0.0000 0.4637 -0.8860
vn -0.0000 0.0000 -1.0000
vn 0.0000 -0.4637 -0.8860
vn 0.0000 -0.7977 -0.6030
vn 0.3015 0.7977 -0.5223
vn 0.4430 0.4637 -0.7673
vn 0.5000 0.0000 -0.8660
vn 0.4430 -0.4637 -0.7673
vn 0.3015 -0.7977 -0.5223
vn 0.5223 0.7977 -0.3015
vn 0.7673 0.4637 -0.4430
vn 0.8660 0.0000 -0.5000
vn 0.7673 -0.4637 -0.4430
vn 0.5223 -0.7977 -0.3015
vn 0.8860 0.4637 0.0000
vn 1.0000 0.0000 0.0000
vn 0.8860 -0.4637 -0.0000
vn 0.6030 -0.7977 0.0000
vn 0.6030 0.7977 -0.0000
vn 0.7673 -0.4637 0.4430
vn 0.5223 -0.7977 0.3015
vn 0.5223 0.7977 0.3015
vn 0.7673 0.4637 0.4430
vn 0.8660 -0.0000 0.5000
vn 0.3015 0.7977 0.5223
vn 0.4430 0.4637 0.7673
vn 0.5000 0.0000 0.8660
vn 0.4430 -0.4637 0.7673
vn 0.3015 -0.7977 0.5223
usemtl None
s 1
f 99/39/39 42/40/40 41/41/41 98/42/42
f 40/43/43 45/44/44 44/45/45 100/46/46
f 39/47/47 43/48/48 42/40/40 99/39/39
f 98/42/42 41/41/41 46/49/49
f 72/50/50 45/44/44 40/43/43
f 100/46/46 44/45/45 43/48/48 39/47/47
f 45/44/44 51/51/51 50/52/52 44/45/45
f 43/48/48 49/53/53 48/54/54 42/40/40
f 41/41/41 47/55/55 46/49/49
f 72/50/50 51/51/51 45/44/44
f 44/45/45 50/52/52 49/53/53 43/48/48
f 42/40/40 48/54/54 47/55/55 41/41/41
f 51/51/51 56/56/56 55/57/57 50/52/52
f 49/53/53 54/58/58 53/59/59 48/54/54
f 47/55/55 52/60/60 46/49/49
f 72/50/50 56/56/56 51/51/51
f 50/52/52 55/57/57 54/58/58 49/53/53
f 48/54/54 53/59/59 52/60/60 47/55/55
f 54/58/58 59/61/61 58/62/62 53/59/59
f 52/60/60 57/63/63 46/49/49
f 72/50/50 61/64/64 56/56/56
f 55/57/57 60/65/65 59/61/61 54/58/58
f 53/59/59 58/62/62 57/63/63 52/60/60
f 56/56/56 61/64/64 60/65/65 55/57/57
f 57/63/63 62/66/66 46/49/49
f 72/50/50 66/67/67 61/64/64
f 60/65/65 65/68/68 64/69/69 59/61/61
f 58/62/62 63/70/70 62/66/66 57/63/63
f 61/64/64 66/67/67 65/68/68 60/65/65
f 59/61/61 64/69/69 63/70/70 58/62/62
f 72/50/50 71/71/71 66/67/67
f 65/68/68 70/72/72 69/73/73 64/69/69
f 63/70/70 68/74/74 67/75/75 62/66/66
f 66/67/67 71/71/71 70/72/72 65/68/68
f 64/69/69 69/73/73 68/74/74 63/70/70
f 62/66/66 67/75/75 46/49/49
f 72/50/50 77/76/76 71/71/71
f 70/72/72 76/77/77 75/78/78 69/73/73
f 68/74/74 74/79/79 73/80/80 67/75/75
f 71/71/71 77/76/76 76/77/77 70/72/72
f 69/73/73 75/78/78 74/79/79 68/74/74
f 67/75/75 73/80/80 46/49/49
f 72/50/50 82/81/81 77/76/76
f 76/77/77 81/82/82 80/83/83 75/78/78
f 74/79/79 79/84/84 78/85/85 73/80/80
f 77/76/76 82/81/81 81/82/82 76/77/77
f 75/78/78 80/83/83 79/84/84 74/79/79
f 73/80/80 78/85/85 46/49/49
f 81/82/82 86/86/86 85/87/87 80/83/83
f 79/84/84 84/88/88 83/89/89 78/85/85
f 82/81/81 87/90/90 86/86/86 81/82/82
f 80/83/83 85/87/87 84/88/88 79/84/84
f 78/85/85 83/89/89 46/49/49
f 72/50/50 87/90/90 82/81/81
f 84/88/88 89/91/91 88/92/92 83/89/89
f 87/90/90 92/93/93 91/94/94 86/86/86
f 85/87/87 90/95/95 89/91/91 84/88/88
f 83/89/89 88/92/92 46/49/49
f 72/50/50 92/93/93 87/90/90
f 86/86/86 91/94/94 90/95/95 85/87/87
f 92/93/93 97/96/96 96/97/97 91/94/94
f 90/95/95 95/98/98 94/99/99 89/91/91
f 88/92/92 93/100/100 46/49/49
f 72/50/50 97/96/96 92/93/93
f 91/94/94 96/97/97 95/98/98 90/95/95
f 89/91/91 94/99/99 93/100/100 88/92/92
f 97/96/96 40/43/43 100/46/46 96/97/97
f 95/98/98 39/47/47 99/39/39 94/99/99
f 93/100/100 98/42/42 46/49/49
f 72/50/50 40/43/43 97/96/96
f 96/97/97 100/46/46 39/47/47 95/98/98
f 94/99/99 99/39/39 98/42/42 93/100/100
o research_Circle.012
v -0.200559 1.154464 0.000000
v -0.173689 1.154464 0.100280
v -0.100280 1.154464 0.173690
v 0.000000 1.154464 0.200559
v 0.100280 1.154464 0.173690
v 0.173690 1.154464 0.100280
v 0.200560 1.154464 0.000000
v 0.173690 1.154464 -0.100280
v 0.100280 1.154464 -0.173690
v 0.000000 1.154464 -0.200559
v -0.100280 1.154464 -0.173690
v -0.173689 1.154464 -0.100280
v -0.036414 1.374977 -0.063071
v 0.000000 1.374977 -0.072829
v 0.036414 1.374977 -0.063071
v 0.063072 1.374977 -0.036414
v 0.072829 1.374977 0.000000
v 0.063072 1.374977 0.036414
v 0.036414 1.374977 0.063071
v 0.000000 1.374977 0.072829
v -0.036414 1.374977 0.063071
v -0.063071 1.374977 0.036414
v -0.072828 1.374977 -0.000000
v -0.063071 1.374977 -0.036414
v -0.036414 1.516296 -0.063071
v 0.000000 1.516296 -0.072829
v 0.036414 1.516296 -0.063071
v 0.063072 1.516296 -0.036414
v 0.072829 1.516296 0.000000
v 0.063072 1.516296 0.036414
v 0.036414 1.516296 0.063071
v 0.000000 1.516296 0.072829
v -0.036414 1.516296 0.063071
v -0.063071 1.516296 0.036414
v -0.072828 1.516296 -0.000000
v -0.063071 1.516296 -0.036414
v -0.063071 1.407691 -0.036414
v -0.036414 1.407691 -0.063071
v 0.036414 1.407691 0.063071
v 0.000000 1.407691 0.072829
v 0.063072 1.407691 -0.036414
v 0.072829 1.407691 0.000000
v -0.063071 1.407691 0.036414
v -0.072828 1.407691 -0.000000
v 0.000000 1.407691 -0.072829
v -0.036414 1.407691 0.063071
v 0.063072 1.407691 0.036414
v 0.036414 1.407691 -0.063071
v 0.061958 1.194211 0.015981
v 0.101527 1.224439 0.044729
v 0.046845 1.224439 0.062496
v 0.013049 1.224439 0.015981
v 0.046845 1.224439 -0.030534
v 0.101527 1.224439 -0.012767
v 0.077072 1.273349 0.062496
v 0.022390 1.273349 0.044729
v 0.022390 1.273349 -0.012767
v 0.077072 1.273349 -0.030534
v 0.110868 1.273349 0.015981
v 0.061958 1.303577 0.015981
v -0.083172 1.171287 0.004785
v -0.059661 1.189247 0.021866
v -0.092152 1.189247 0.032423
v -0.112233 1.189247 0.004785
v -0.092152 1.189247 -0.022854
v -0.059661 1.189247 -0.012297
v -0.074192 1.218308 0.032423
v -0.106683 1.218308 0.021866
v -0.106683 1.218308 -0.012297
v -0.074192 1.218308 -0.022854
v -0.054111 1.218308 0.004785
v -0.083172 1.236269 0.004785
vt 0.993412 0.020540
vt 0.993412 0.020540
vt 0.993412 0.020540
vt 0.993412 0.020540
vt 0.993412 0.020540
vt 0.993412 0.020540
vt 0.993412 0.020540
vt 0.993412 0.020540
vt 0.993412 0.020540
vt 0.993412 0.020540
vt 0.993412 0.020540
vt 0.993412 0.020540
vt 0.993412 0.020540
vt 0.993412 0.020540
vt 0.993412 0.020540
vt 0.993412 0.020540
vt 0.993412 0.020540
vt 0.993412 0.020540
vt 0.993412 0.020540
vt 0.993412 0.020540
vt 0.993412 0.020540
vt 0.993412 0.020540
vt 0.993412 0.020540
vt 0.993412 0.020540
vt 0.005229 0.011074
vt 0.005229 0.011074
vt 0.005229 0.011074
vt 0.005229 0.011074
vt 0.005229 0.011074
vt 0.005229 0.011074
vt 0.005229 0.011074
vt 0.005229 0.011074
vt 0.005229 0.011074
vt 0.005229 0.011074
vt 0.005229 0.011074
vt 0.005229 0.011074
vt 0.005229 0.011074
vt 0.005229 0.011074
vt 0.005229 0.011074
vt 0.005229 0.011074
vt 0.005229 0.011074
vt 0.005229 0.011074
vt 0.005229 0.011074
vt 0.005229 0.011074
vt 0.005229 0.011074
vt 0.005229 0.011074
vt 0.005229 0.011074
vt 0.005229 0.011074
vt 0.004621 0.008897
vt 0.004621 0.008897
vt 0.004621 0.008897
vt 0.004621 0.008897
vt 0.004621 0.008897
vt 0.004621 0.008897
vt 0.004621 0.008897
vt 0.004621 0.008897
vt 0.004621 0.008897
vt 0.004621 0.008897
vt 0.004621 0.008897
vt 0.004621 0.008897
vt 0.004621 0.008897
vt 0.004621 0.008897
vt 0.004621 0.008897
vt 0.004621 0.008897
vt 0.004621 0.008897
vt 0.004621 0.008897
vt 0.004621 0.008897
vt 0.004621 0.008897
vt 0.004621 0.008897
vt 0.004621 0.008897
vt 0.004621 0.008897
vt 0.004621 0.008897
vt 0.005229 0.011074
vt 0.005229 0.011074
vt 0.005229 0.011074
vt 0.005229 0.011074
vt 0.005229 0.011074
vt 0.005229 0.011074
vt 0.005229 0.011074
vt 0.005229 0.011074
vt 0.005229 0.011074
vt 0.005229 0.011074
vt 0.005229 0.011074
vt 0.005229 0.011074
vn 0.0001 -1.0000 0.0000
vn 0.7236 -0.4472 0.5258
vn -0.2764 -0.4472 0.8506
vn 0.7236 -0.4472 0.5257
vn 0.0000 -1.0000 0.0000
vn 0.7236 -0.4472 -0.5257
vn -0.8944 -0.4472 -0.0000
vn -0.2764 -0.4472 -0.8506
vn 0.7236 -0.4472 -0.5258
vn 0.8944 0.4472 -0.0000
vn -0.2764 -0.4472 0.8507
vn 0.2763 0.4472 0.8507
vn -0.7236 0.4472 0.5257
vn -0.7236 0.4472 -0.5257
vn -0.2764 -0.4472 -0.8507
vn 0.2763 0.4472 -0.8507
vn 0.8945 0.4472 0.0000
vn 0.2764 0.4472 0.8506
vn -0.2763 -0.4472 0.8507
vn 0.2764 0.4472 0.8507
vn -0.2763 -0.4472 -0.8507
vn 0.2764 0.4472 -0.8507
vn 0.2764 0.4472 -0.8506
vn 0.0000 1.0000 -0.0000
vn -0.7236 0.4472 0.5258
vn -0.0001 1.0000 0.0000
vn -0.0000 1.0000 -0.0001
vn -0.7236 0.4472 -0.5258
vn -0.8945 -0.4472 0.0000
vn 0.9711 -0.2385 -0.0001
vn 0.8811 -0.4730 -0.0000
vn 0.7630 -0.4730 -0.4405
vn 0.6911 0.6027 -0.3990
vn -0.6911 0.6027 0.3990
vn -0.7630 -0.4730 0.4406
vn -0.4405 -0.4730 0.7630
vn -0.2474 0.8690 0.4286
vn -0.3990 0.6027 -0.6911
vn -0.4405 -0.4730 -0.7630
vn -0.7630 -0.4730 -0.4405
vn -0.8410 -0.2385 -0.4855
vn 0.8411 -0.2385 0.4855
vn 0.7630 -0.4730 0.4405
vn 0.4405 -0.4730 -0.7630
vn 0.2474 0.8690 -0.4286
vn -0.0000 -0.4730 0.8811
vn 0.0000 0.8690 0.4949
vn -0.8811 -0.4730 -0.0000
vn -0.9711 -0.2385 0.0000
vn -0.0000 -0.4730 -0.8811
vn -0.0000 0.8690 -0.4949
vn 0.4405 -0.4730 0.7630
vn 0.3990 0.6027 0.6911
vn 0.5000 0.0000 0.8660
vn 0.8660 0.0000 0.5000
vn 0.0000 0.0000 -1.0000
vn -0.5000 0.0000 -0.8660
vn -1.0000 0.0000 -0.0000
vn -0.8660 0.0000 0.5000
vn 1.0000 0.0000 -0.0000
vn 0.8660 0.0000 -0.5000
vn -0.0000 0.0000 1.0000
vn 0.5000 0.0000 -0.8660
vn -0.8660 0.0000 -0.5000
vn -0.5000 0.0000 0.8660
usemtl None
s off
f 149/101/101 150/102/102 151/103/103
f 150/102/104 149/101/105 154/104/106
f 149/101/105 151/103/103 152/105/107
f 149/101/105 152/105/107 153/106/108
f 149/101/101 153/106/108 154/104/109
f 150/102/104 154/104/106 159/107/110
f 151/103/111 150/102/104 155/108/112
f 152/105/107 151/103/103 156/109/113
f 153/106/108 152/105/107 157/110/114
f 154/104/106 153/106/115 158/111/116
f 150/102/104 159/107/117 155/108/118
f 151/103/119 155/108/120 156/109/113
f 152/105/107 156/109/113 157/110/114
f 153/106/121 157/110/114 158/111/122
f 154/104/106 158/111/123 159/107/117
f 155/108/118 159/107/110 160/112/124
f 156/109/125 155/108/118 160/112/126
f 157/110/114 156/109/113 160/112/127
f 158/111/123 157/110/128 160/112/126
f 159/107/110 158/111/123 160/112/124
f 161/113/105 162/114/104 163/115/103
f 162/114/104 161/113/105 166/116/106
f 161/113/105 163/115/103 164/117/107
f 161/113/105 164/117/107 165/118/108
f 161/113/105 165/118/108 166/116/106
f 162/114/104 166/116/106 171/119/110
f 163/115/111 162/114/104 167/120/112
f 164/117/129 163/115/111 168/121/113
f 165/118/115 164/117/129 169/122/114
f 166/116/106 165/118/115 170/123/116
f 162/114/104 171/119/110 167/120/118
f 163/115/119 167/120/120 168/121/113
f 164/117/107 168/121/113 169/122/114
f 165/118/121 169/122/114 170/123/122
f 166/116/106 170/123/123 171/119/110
f 167/120/118 171/119/110 172/124/124
f 168/121/125 167/120/118 172/124/126
f 169/122/114 168/121/113 172/124/124
f 170/123/123 169/122/128 172/124/126
f 171/119/110 170/123/122 172/124/124
s 1
f 101/125/130 123/126/131 122/127/132 102/128/133
f 108/129/134 116/130/135 115/131/136 109/132/137
f 105/133/138 119/134/139 118/135/140 106/136/141
f 112/137/142 124/138/143 123/126/131 101/125/130
f 102/128/133 122/127/132 121/139/144 103/140/145
f 109/132/137 115/131/136 114/141/146 110/142/147
f 106/136/141 118/135/140 117/143/148 107/144/149
f 103/140/145 121/139/144 120/145/150 104/146/151
f 110/142/147 114/141/146 113/147/152 111/148/153
f 107/144/149 117/143/148 116/130/135 108/129/134
f 104/146/151 120/145/150 119/134/139 105/133/138
f 111/148/153 113/147/152 124/138/143 112/137/142
f 138/149/154 125/150/154 136/151/155 137/152/155
f 140/153/156 132/154/156 131/155/157 139/156/157
f 142/157/158 129/158/158 128/159/159 141/160/159
f 144/161/160 135/162/160 134/163/161 143/164/161
f 145/165/162 126/166/162 125/150/154 138/149/154
f 146/167/163 133/168/163 132/154/156 140/153/156
f 147/169/164 130/170/164 129/158/158 142/157/158
f 148/171/165 127/172/165 126/166/162 145/165/162
f 143/164/161 134/163/161 133/168/163 146/167/163
f 137/152/155 136/151/155 135/162/160 144/161/160
f 139/156/157 131/155/157 130/170/164 147/169/164
f 141/160/159 128/159/159 127/172/165 148/171/165
f 116/130/135 141/173/159 148/174/165 115/131/136
f 119/134/139 139/175/157 147/176/164 118/135/140
f 124/138/143 137/177/155 144/178/160 123/126/131
f 122/127/132 143/179/161 146/180/163 121/139/144
f 115/131/136 148/174/165 145/181/162 114/141/146
f 118/135/140 147/176/164 142/182/158 117/143/148
f 121/139/144 146/180/163 140/183/156 120/145/150
f 114/141/146 145/181/162 138/184/154 113/147/152
f 123/126/131 144/178/160 143/179/161 122/127/132
f 117/143/148 142/182/158 141/173/159 116/130/135
f 120/145/150 140/183/156 139/175/157 119/134/139
f 113/147/152 138/184/154 137/177/155 124/138/143
f 102/128/133 111/148/153 112/137/142 101/125/130
f 103/140/145 110/142/147 111/148/153 102/128/133
f 104/146/151 109/132/137 110/142/147 103/140/145
f 105/133/138 108/129/134 109/132/137 104/146/151
f 106/136/141 107/144/149 108/129/134 105/133/138
