# Blender v2.82 (sub 7) OBJ File: 'Models.blend'
# www.blender.org
mtllib bubble_spread.mtl
o arrow_Sphere
v 0.000000 1.312347 -0.380706
v 0.095177 1.642048 -0.164851
v 0.164851 1.502700 -0.285530
v 0.190353 1.312347 -0.329701
v -0.000000 1.693053 -0.000000
v 0.164851 1.642048 -0.095177
v 0.285530 1.502700 -0.164851
v 0.329701 1.312347 -0.190353
v 0.190353 1.642048 -0.000000
v 0.329701 1.502700 -0.000000
v 0.380706 1.312347 -0.000000
v 0.164851 1.642048 0.095177
v 0.285530 1.502700 0.164851
v 0.329701 1.312347 0.190353
v 0.095177 1.642048 0.164851
v 0.164851 1.502700 0.285530
v 0.190353 1.312347 0.329701
v -0.000000 1.642048 0.190353
v -0.000000 1.502700 0.329701
v -0.000000 1.312347 0.380706
v -0.000000 0.000827 -0.000000
v -0.095177 1.642048 0.164851
v -0.164851 1.502700 0.285530
v -0.190353 1.312347 0.329701
v -0.164851 1.642048 0.095176
v -0.285530 1.502700 0.164851
v -0.329701 1.312347 0.190353
v -0.190353 1.642048 -0.000000
v -0.329701 1.502700 -0.000000
v -0.380706 1.312347 -0.000000
v -0.164851 1.642048 -0.095177
v -0.285530 1.502700 -0.164851
v -0.329701 1.312347 -0.190353
v -0.095177 1.642048 -0.164851
v -0.164851 1.502700 -0.285530
v -0.190353 1.312347 -0.329701
v 0.000000 1.642048 -0.190353
v 0.000000 1.502700 -0.329701
vt 0.007074 0.024608
vt 0.007074 0.024608
vt 0.007074 0.024608
vt 0.007074 0.024608
vt 0.007074 0.024608
vt 0.007074 0.024608
vt 0.007074 0.024608
vt 0.007074 0.024608
vt 0.007074 0.024608
vt 0.007074 0.024608
vt 0.007074 0.024608
vt 0.007074 0.024608
vt 0.007074 0.024608
vt 0.007074 0.024608
vt 0.007074 0.024608
vt 0.007074 0.024608
vt 0.007074 0.024608
vt 0.007074 0.024608
vt 0.007074 0.024608
vt 0.007074 0.024608
vt 0.007074 0.024608
vt 0.007074 0.024608
vt 0.007074 0.024608
vt 0.007074 0.024608
vt 0.007074 0.024608
vt 0.007074 0.024608
vt 0.007074 0.024608
vt 0.007074 0.024608
vt 0.007074 0.024608
vt 0.007074 0.024608
vt 0.007074 0.024608
vt 0.007074 0.024608
vt 0.007074 0.024608
vt 0.007074 0.024608
vt 0.007074 0.024608
vt 0.007074 0.024608
vt 0.007074 0.024608
vt 0.007074 0.024608
vn 0.0000 -0.4637 0.8860
vn -0.4430 -0.4637 0.7673
vn -0.3015 -0.7977 0.5223
vn -0.0000 -0.7977 0.6030
vn -0.0000 0.1688 0.9856
vn -0.4928 0.1688 0.8536
vn 0.0000 -1.0000 -0.0000
vn -0.8536 0.1688 0.4928
vn -0.7673 -0.4637 0.4430
vn -0.5223 -0.7977 0.3015
vn -0.9856 0.1688 0.0000
vn 0.0000 1.0000 0.0000
vn -0.8860 -0.4637 -0.0000
vn -0.6030 -0.7977 0.0000
vn -0.8536 0.1688 -0.4928
vn -0.7673 -0.4637 -0.4430
vn -0.5223 -0.7977 -0.3015
vn -0.4928 0.1688 -0.8536
vn -0.3015 -0.7977 -0.5223
vn -0.0000 0.1688 -0.9856
vn -0.4430 -0.4637 -0.7673
vn 0.4928 0.1688 -0.8536
vn 0.0000 -0.4637 -0.8860
vn 0.0000 -0.7977 -0.6030
vn 0.9856 0.1688 -0.0000
vn 0.8536 0.1688 0.4928
vn 0.8536 0.1688 -0.4928
vn 0.4430 -0.4637 -0.7673
vn 0.3015 -0.7977 -0.5223
vn 0.7673 -0.4637 -0.4430
vn 0.5223 -0.7977 -0.3015
vn 0.8860 -0.4637 0.0000
vn 0.6030 -0.7977 0.0000
vn 0.4928 0.1688 0.8536
vn 0.7673 -0.4637 0.4430
vn 0.5223 -0.7977 0.3015
vn 0.4430 -0.4637 0.7673
vn 0.3015 -0.7977 0.5223
usemtl None
s 1
f 38/1/1 3/2/2 2/3/3 37/4/4
f 1/5/5 4/6/6 3/2/2 38/1/1
f 37/4/4 2/3/3 5/7/7
f 4/6/6 8/8/8 7/9/9 3/2/2
f 2/3/3 6/10/10 5/7/7
f 11/11/11 8/8/8 21/12/12
f 3/2/2 7/9/9 6/10/10 2/3/3
f 8/8/8 11/11/11 10/13/13 7/9/9
f 6/10/10 9/14/14 5/7/7
f 14/15/15 11/11/11 21/12/12
f 7/9/9 10/13/13 9/14/14 6/10/10
f 11/11/11 14/15/15 13/16/16 10/13/13
f 9/14/14 12/17/17 5/7/7
f 17/18/18 14/15/15 21/12/12
f 10/13/13 13/16/16 12/17/17 9/14/14
f 12/17/17 15/19/19 5/7/7
f 20/20/20 17/18/18 21/12/12
f 13/16/16 16/21/21 15/19/19 12/17/17
f 14/15/15 17/18/18 16/21/21 13/16/16
f 4/6/6 1/5/5 21/12/12
f 21/12/12 24/22/22 20/20/20
f 16/21/21 19/23/23 18/24/24 15/19/19
f 17/18/18 20/20/20 19/23/23 16/21/21
f 15/19/19 18/24/24 5/7/7
f 30/25/25 21/12/12 33/26/26
f 21/12/12 27/27/27 24/22/22
f 19/23/23 23/28/28 22/29/29 18/24/24
f 20/20/20 24/22/22 23/28/28 19/23/23
f 18/24/24 22/29/29 5/7/7
f 21/12/12 30/25/25 27/27/27
f 23/28/28 26/30/30 25/31/31 22/29/29
f 24/22/22 27/27/27 26/30/30 23/28/28
f 22/29/29 25/31/31 5/7/7
f 26/30/30 29/32/32 28/33/33 25/31/31
f 21/12/12 36/34/34 33/26/26
f 27/27/27 30/25/25 29/32/32 26/30/30
f 25/31/31 28/33/33 5/7/7
f 29/32/32 32/35/35 31/36/36 28/33/33
f 30/25/25 33/26/26 32/35/35 29/32/32
f 28/33/33 31/36/36 5/7/7
f 33/26/26 36/34/34 35/37/37 32/35/35
f 31/36/36 34/38/38 5/7/7
f 21/12/12 1/5/5 36/34/34
f 32/35/35 35/37/37 34/38/38 31/36/36
f 36/34/34 1/5/5 38/1/1 35/37/37
f 34/38/38 37/4/4 5/7/7
f 35/37/37 38/1/1 37/4/4 34/38/38
f 8/8/8 4/6/6 21/12/12
o bubble_Sphere.009
v 0.000000 1.312347 -0.317361
v 0.000000 1.037504 -0.158681
v 0.079340 1.587189 -0.137421
v 0.137421 1.471027 -0.238021
v 0.158681 1.312347 -0.274843
v 0.137421 1.153666 -0.238021
v 0.079340 1.037504 -0.137421
v -0.000000 1.629708 -0.000000
v 0.137421 1.587189 -0.079340
v 0.238021 1.471027 -0.137421
v 0.274843 1.312347 -0.158681
v 0.238021 1.153666 -0.137421
v 0.137421 1.037504 -0.079340
v 0.158680 1.587189 -0.000000
v 0.274843 1.471027 -0.000000
v 0.317361 1.312347 -0.000000
v 0.274843 1.153666 -0.000000
v 0.158680 1.037504 -0.000000
v 0.137421 1.587189 0.079340
v 0.238021 1.471027 0.137421
v 0.274843 1.312347 0.158680
v 0.238021 1.153666 0.137421
v 0.137421 1.037504 0.079340
v 0.079340 1.587189 0.137421
v 0.137421 1.471027 0.238021
v 0.158680 1.312347 0.274843
v 0.137421 1.153666 0.238021
v 0.079340 1.037504 0.137421
v -0.000000 1.587189 0.158680
v -0.000000 1.471027 0.274843
v -0.000000 1.312347 0.317361
v -0.000000 1.153666 0.274843
v 0.000000 1.037504 0.158680
v 0.000000 0.994986 -0.000000
v -0.079340 1.587189 0.137421
v -0.137421 1.471027 0.238021
v -0.158681 1.312347 0.274843
v -0.137421 1.153666 0.238021
v -0.079340 1.037504 0.137421
v -0.137421 1.587189 0.079340
v -0.238021 1.471027 0.137421
v -0.274843 1.312347 0.158680
v -0.238021 1.153666 0.137421
v -0.137421 1.037504 0.079340
v -0.158680 1.587189 -0.000000
v -0.274843 1.471027 -0.000000
v -0.317361 1.312347 -0.000000
v -0.274843 1.153666 -0.000000
v -0.158680 1.037504 -0.000000
v -0.137421 1.587189 -0.079340
v -0.238021 1.471027 -0.137421
v -0.274843 1.312347 -0.158681
v -0.238021 1.153666 -0.137421
v -0.137421 1.037504 -0.079340
v -0.079340 1.587189 -0.137421
v -0.137421 1.471027 -0.238021
v -0.158680 1.312347 -0.274843
v -0.137421 1.153666 -0.238021
v -0.079340 1.037504 -0.137421
v 0.000000 1.587189 -0.158681
v 0.000000 1.471027 -0.274843
v 0.000000 1.153666 -0.274843
vt 0.993932 0.016396
vt 0.993932 0.016396
vt 0.993932 0.016396
vt 0.993932 0.016396
vt 0.993932 0.016396
vt 0.993932 0.016396
vt 0.993932 0.016396
vt 0.993932 0.016396
vt 0.993932 0.016396
vt 0.993932 0.016396
vt 0.993932 0.016396
vt 0.993932 0.016396
vt 0.993932 0.016396
vt 0.993932 0.016396
vt 0.993932 0.016396
vt 0.993932 0.016396
vt 0.993932 0.016396
vt 0.993932 0.016396
vt 0.993932 0.016396
vt 0.993932 0.016396
vt 0.993932 0.016396
vt 0.993932 0.016396
vt 0.993932 0.016396
vt 0.993932 0.016396
vt 0.993932 0.016396
vt 0.993932 0.016396
vt 0.993932 0.016396
vt 0.993932 0.016396
vt 0.993932 0.016396
vt 0.993932 0.016396
vt 0.993932 0.016396
vt 0.993932 0.016396
vt 0.993932 0.016396
vt 0.993932 0.016396
vt 0.993932 0.016396
vt 0.993932 0.016396
vt 0.993932 0.016396
vt 0.993932 0.016396
vt 0.993932 0.016396
vt 0.993932 0.016396
vt 0.993932 0.016396
vt 0.993932 0.016396
vt 0.993932 0.016396
vt 0.993932 0.016396
vt 0.993932 0.016396
vt 0.993932 0.016396
vt 0.993932 0.016396
vt 0.993932 0.016396
vt 0.993932 0.016396
vt 0.993932 0.016396
vt 0.993932 0.016396
vt 0.993932 0.016396
vt 0.993932 0.016396
vt 0.993932 0.016396
vt 0.993932 0.016396
vt 0.993932 0.016396
vt 0.993932 0.016396
vt 0.993932 0.016396
vt 0.993932 0.016396
vt 0.993932 0.016396
vt 0.993932 0.016396
vt 0.993932 0.016396
vn 0.0000 -0.4637 0.8860
vn -0.4430 -0.4637 0.7673
vn -0.3015 -0.7977 0.5223
vn -0.0000 -0.7977 0.6030
vn 0.0000 0.7977 0.6030
vn -0.3015 0.7977 0.5223
vn -0.4430 0.4637 0.7673
vn 0.0000 0.4637 0.8860
vn 0.0000 0.0000 1.0000
vn -0.5000 -0.0000 0.8660
vn 0.0000 -1.0000 -0.0000
vn 0.0000 1.0000 -0.0000
vn -0.5222 0.7977 0.3016
vn -0.7673 0.4637 0.4430
vn -0.8660 0.0000 0.5000
vn -0.7673 -0.4637 0.4430
vn -0.5223 -0.7977 0.3015
vn -0.6030 0.7977 0.0000
vn -0.8860 0.4637 -0.0000
vn -1.0000 0.0000 0.0000
vn -0.8860 -0.4637 -0.0000
vn -0.6030 -0.7977 -0.0000
vn -0.8660 0.0000 -0.5000
vn -0.7673 -0.4637 -0.4430
vn -0.5223 -0.7977 -0.3015
vn -0.5223 0.7977 -0.3015
vn -0.7673 0.4637 -0.4430
vn -0.3015 -0.7977 -0.5223
vn -0.3015 0.7977 -0.5223
vn -0.4430 0.4637 -0.7673
vn -0.5000 0.0000 -0.8660
vn -0.4430 -0.4637 -0.7673
vn 0.0000 0.7977 -0.6030
vn -0.0000 0.4637 -0.8860
vn -0.0000 0.0000 -1.0000
vn 0.0000 -0.4637 -0.8860
vn 0.0000 -0.7977 -0.6030
vn 0.3015 0.7977 -0.5223
vn 0.4430 0.4637 -0.7673
vn 0.5000 0.0000 -0.8660
vn 0.4430 -0.4637 -0.7673
vn 0.3015 -0.7977 -0.5223
vn 0.5223 0.7977 -0.3015
vn 0.7673 0.4637 -0.4430
vn 0.8660 0.0000 -0.5000
vn 0.7673 -0.4637 -0.4430
vn 0.5223 -0.7977 -0.3015
vn 0.8860 0.4637 0.0000
vn 1.0000 0.0000 0.0000
vn 0.8860 -0.4637 -0.0000
vn 0.6030 -0.7977 0.0000
vn 0.6030 0.7977 -0.0000
vn 0.7673 -0.4637 0.4430
vn 0.5223 -0.7977 0.3015
vn 0.5223 0.7977 0.3015
vn 0.7673 0.4637 0.4430
vn 0.8660 -0.0000 0.5000
vn 0.3015 0.7977 0.5223
vn 0.4430 0.4637 0.7673
vn 0.5000 0.0000 0.8660
vn 0.4430 -0.4637 0.7673
vn 0.3015 -0.7977 0.5223
usemtl None
s 1
f 99/39/39 42/40/40 41/41/41 98/42/42
f 40/43/43 45/44/44 44/45/45 100/46/46
f 39/47/47 43/48/48 42/40/40 99/39/39
f 98/42/42 41/41/41 46/49/49
f 72/50/50 45/44/44 40/43/43
f 100/46/46 44/45/45 43/48/48 39/47/47
f 45/44/44 51/51/51 50/52/52 44/45/45
f 43/48/48 49/53/53 48/54/54 42/40/40
f 41/41/41 47/55/55 46/49/49
f 72/50/50 51/51/51 45/44/44
f 44/45/45 50/52/52 49/53/53 43/48/48
f 42/40/40 48/54/54 47/55/55 41/41/41
f 51/51/51 56/56/56 55/57/57 50/52/52
f 49/53/53 54/58/58 53/59/59 48/54/54
f 47/55/55 52/60/60 46/49/49
f 72/50/50 56/56/56 51/51/51
f 50/52/52 55/57/57 54/58/58 49/53/53
f 48/54/54 53/59/59 52/60/60 47/55/55
f 54/58/58 59/61/61 58/62/62 53/59/59
f 52/60/60 57/63/63 46/49/49
f 72/50/50 61/64/64 56/56/56
f 55/57/57 60/65/65 59/61/61 54/58/58
f 53/59/59 58/62/62 57/63/63 52/60/60
f 56/56/56 61/64/64 60/65/65 55/57/57
f 57/63/63 62/66/66 46/49/49
f 72/50/50 66/67/67 61/64/64
f 60/65/65 65/68/68 64/69/69 59/61/61
f 58/62/62 63/70/70 62/66/66 57/63/63
f 61/64/64 66/67/67 65/68/68 60/65/65
f 59/61/61 64/69/69 63/70/70 58/62/62
f 72/50/50 71/71/71 66/67/67
f 65/68/68 70/72/72 69/73/73 64/69/69
f 63/70/70 68/74/74 67/75/75 62/66/66
f 66/67/67 71/71/71 70/72/72 65/68/68
f 64/69/69 69/73/73 68/74/74 63/70/70
f 62/66/66 67/75/75 46/49/49
f 72/50/50 77/76/76 71/71/71
f 70/72/72 76/77/77 75/78/78 69/73/73
f 68/74/74 74/79/79 73/80/80 67/75/75
f 71/71/71 77/76/76 76/77/77 70/72/72
f 69/73/73 75/78/78 74/79/79 68/74/74
f 67/75/75 73/80/80 46/49/49
f 72/50/50 82/81/81 77/76/76
f 76/77/77 81/82/82 80/83/83 75/78/78
f 74/79/79 79/84/84 78/85/85 73/80/80
f 77/76/76 82/81/81 81/82/82 76/77/77
f 75/78/78 80/83/83 79/84/84 74/79/79
f 73/80/80 78/85/85 46/49/49
f 81/82/82 86/86/86 85/87/87 80/83/83
f 79/84/84 84/88/88 83/89/89 78/85/85
f 82/81/81 87/90/90 86/86/86 81/82/82
f 80/83/83 85/87/87 84/88/88 79/84/84
f 78/85/85 83/89/89 46/49/49
f 72/50/50 87/90/90 82/81/81
f 84/88/88 89/91/91 88/92/92 83/89/89
f 87/90/90 92/93/93 91/94/94 86/86/86
f 85/87/87 90/95/95 89/91/91 84/88/88
f 83/89/89 88/92/92 46/49/49
f 72/50/50 92/93/93 87/90/90
f 86/86/86 91/94/94 90/95/95 85/87/87
f 92/93/93 97/96/96 96/97/97 91/94/94
f 90/95/95 95/98/98 94/99/99 89/91/91
f 88/92/92 93/100/100 46/49/49
f 72/50/50 97/96/96 92/93/93
f 91/94/94 96/97/97 95/98/98 90/95/95
f 89/91/91 94/99/99 93/100/100 88/92/92
f 97/96/96 40/43/43 100/46/46 96/97/97
f 95/98/98 39/47/47 99/39/39 94/99/99
f 93/100/100 98/42/42 46/49/49
f 72/50/50 40/43/43 97/96/96
f 96/97/97 100/46/46 39/47/47 95/98/98
f 94/99/99 99/39/39 98/42/42 93/100/100
o spread_Icosphere.001
v 0.000000 1.197830 0.000000
v -0.043457 1.261133 -0.092750
v 0.074781 1.261133 -0.069991
v 0.089675 1.261133 0.049493
v -0.019360 1.261133 0.100579
v -0.101639 1.261133 0.012668
v 0.019360 1.363560 -0.100579
v 0.101639 1.363560 -0.012668
v 0.043457 1.363560 0.092750
v -0.074781 1.363560 0.069991
v -0.089675 1.363560 -0.049493
v 0.000000 1.426864 0.000000
v 0.085967 1.286897 0.195271
v 0.060800 1.323557 0.141558
v 0.129274 1.323557 0.154738
v 0.137900 1.323557 0.223934
v 0.074755 1.323557 0.253518
v 0.027106 1.323557 0.202607
v 0.097179 1.382874 0.137024
v 0.144828 1.382874 0.187935
v 0.111134 1.382874 0.248984
v 0.042660 1.382874 0.235804
v 0.034035 1.382874 0.166609
v 0.085967 1.419534 0.195271
v -0.150550 1.086590 -0.025702
v -0.159366 1.142067 -0.030815
v -0.162704 1.108683 -0.076157
v -0.122836 1.069044 -0.071590
v -0.094860 1.077930 -0.023425
v -0.117437 1.123060 0.001775
v -0.137102 1.158807 -0.079863
v -0.114526 1.113677 -0.105063
v -0.072596 1.094670 -0.072472
v -0.069258 1.128053 -0.027130
v -0.109126 1.167693 -0.031697
v -0.081413 1.150147 -0.077585
v -0.012363 1.480248 -0.131754
v -0.038875 1.468744 -0.180192
v -0.021915 1.521391 -0.169138
v -0.029576 1.530974 -0.114083
v -0.051271 1.484248 -0.091112
v -0.057018 1.445789 -0.131970
v -0.072474 1.512360 -0.192459
v -0.066727 1.550819 -0.151601
v -0.084869 1.527864 -0.103379
v -0.101829 1.475217 -0.114433
v -0.094168 1.465634 -0.169488
v -0.111381 1.516359 -0.151817
v -0.002943 1.312941 0.003712
v -0.118924 1.118962 -0.047932
v -0.002306 1.307062 -0.006107
v -0.064179 1.493020 -0.147893
v -0.000000 1.312347 0.000000
v 0.085967 1.353216 0.195271
v 0.007246 1.312706 -0.008896
v -0.108735 1.118728 -0.060540
v 0.007619 1.302725 0.004481
v -0.108362 1.108747 -0.047162
v -0.008621 1.312238 0.012984
v -0.070493 1.498195 -0.128801
v 0.019355 1.303914 0.011195
v -0.042517 1.489871 -0.130590
v -0.014523 1.315106 0.009130
v 0.071445 1.355975 0.204401
v -0.012145 1.295960 0.000863
v 0.073822 1.336829 0.196134
vt 0.005859 0.012152
vt 0.005859 0.012152
vt 0.005859 0.012152
vt 0.005859 0.012152
vt 0.005859 0.012152
vt 0.005859 0.012152
vt 0.005859 0.012152
vt 0.005859 0.012152
vt 0.005859 0.012152
vt 0.005859 0.012152
vt 0.005859 0.012152
vt 0.005859 0.012152
vt 0.005859 0.012152
vt 0.005859 0.012152
vt 0.005859 0.012152
vt 0.005859 0.012152
vt 0.005859 0.012152
vt 0.005859 0.012152
vt 0.005859 0.012152
vt 0.005859 0.012152
vt 0.005859 0.012152
vt 0.005859 0.012152
vt 0.005859 0.012152
vt 0.005859 0.012152
vt 0.005859 0.012152
vt 0.005859 0.012152
vt 0.005859 0.012152
vt 0.005859 0.012152
vt 0.005859 0.012152
vt 0.005859 0.012152
vt 0.005859 0.012152
vt 0.005859 0.012152
vt 0.005859 0.012152
vt 0.005859 0.012152
vt 0.005859 0.012152
vt 0.005859 0.012152
vt 0.005859 0.012152
vt 0.005859 0.012152
vt 0.005859 0.012152
vt 0.005859 0.012152
vt 0.005859 0.012152
vt 0.005859 0.012152
vt 0.005859 0.012152
vt 0.005859 0.012152
vt 0.005859 0.012152
vt 0.005859 0.012152
vt 0.005859 0.012152
vt 0.005859 0.012152
vt 0.005549 0.015502
vt 0.005549 0.015502
vt 0.005549 0.015502
vt 0.005549 0.015502
vt 0.005549 0.015502
vt 0.005549 0.015502
vt 0.005549 0.015502
vt 0.005549 0.015502
vt 0.005549 0.015502
vt 0.005549 0.015502
vt 0.005549 0.015502
vt 0.005549 0.015502
vt 0.005549 0.015502
vt 0.005549 0.015502
vt 0.005549 0.015502
vt 0.005549 0.015502
vt 0.005549 0.015502
vt 0.005549 0.015502
vn -0.0000 -1.0000 -0.0000
vn -0.3795 -0.4472 -0.8099
vn 0.6530 -0.4472 -0.6112
vn -0.8876 -0.4472 0.1106
vn 0.7831 -0.4472 0.4322
vn -0.1691 -0.4472 0.8783
vn -0.7831 0.4472 -0.4322
vn 0.1691 0.4472 -0.8783
vn 0.8876 0.4472 -0.1106
vn 0.3795 0.4472 0.8099
vn -0.6530 0.4472 0.6112
vn 0.0000 1.0000 0.0000
vn -0.6444 -0.5924 0.4836
vn -0.8088 0.4418 0.3883
vn -0.8710 -0.1805 -0.4570
vn -0.0271 0.0875 0.9958
vn -0.1278 -0.9195 -0.3718
vn 0.3937 -0.7538 0.5260
vn 0.1278 0.9195 0.3718
vn -0.3937 0.7538 -0.5260
vn 0.0271 -0.0875 -0.9958
vn 0.8088 -0.4418 -0.3883
vn 0.8710 0.1805 0.4570
vn 0.6444 0.5924 -0.4836
vn 0.9229 -0.3366 0.1870
vn 0.4287 -0.5510 -0.7160
vn 0.7448 0.4304 -0.5099
vn 0.0905 -0.9789 0.1830
vn 0.6020 0.6090 0.5164
vn 0.1976 -0.2620 0.9446
vn -0.6020 -0.6090 -0.5164
vn -0.1976 0.2620 -0.9446
vn -0.0905 0.9789 -0.1830
vn -0.4287 0.5510 0.7160
vn -0.7448 -0.4304 0.5099
vn -0.9229 0.3366 -0.1870
vn -0.8454 0.4165 0.3343
vn 0.2029 0.1368 -0.9696
vn 0.6530 -0.5335 0.5376
vn 0.6529 -0.5335 0.5376
vn -0.2366 -0.6377 -0.7331
vn -0.5396 0.3896 0.7464
vn 0.8857 0.4293 0.1766
vn 0.8506 0.2939 -0.4360
vn -0.7783 0.5883 0.2195
vn -0.0445 -0.9737 0.2234
usemtl None
s 1
f 101/101/101 102/102/102 103/103/103
f 102/102/102 101/101/101 106/104/104
f 101/101/101 103/103/103 104/105/105
f 101/101/101 104/105/105 105/106/106
f 101/101/101 105/106/106 106/104/104
f 102/102/102 106/104/104 111/107/107
f 103/103/103 102/102/102 107/108/108
f 104/105/105 103/103/103 108/109/109
f 105/106/106 104/105/105 109/110/110
f 106/104/104 105/106/106 110/111/111
f 102/102/102 111/107/107 107/108/108
f 103/103/103 107/108/108 108/109/109
f 104/105/105 108/109/109 109/110/110
f 105/106/106 109/110/110 110/111/111
f 106/104/104 110/111/111 111/107/107
f 107/108/108 111/107/107 112/112/112
f 108/109/109 107/108/108 112/112/112
f 109/110/110 108/109/109 112/112/112
f 110/111/111 109/110/110 112/112/112
f 111/107/107 110/111/111 112/112/112
f 113/113/101 114/114/102 115/115/103
f 114/114/102 113/113/101 118/116/104
f 113/113/101 115/115/103 116/117/105
f 113/113/101 116/117/105 117/118/106
f 113/113/101 117/118/106 118/116/104
f 114/114/102 118/116/104 123/119/107
f 115/115/103 114/114/102 119/120/108
f 116/117/105 115/115/103 120/121/109
f 117/118/106 116/117/105 121/122/110
f 118/116/104 117/118/106 122/123/111
f 114/114/102 123/119/107 119/120/108
f 115/115/103 119/120/108 120/121/109
f 116/117/105 120/121/109 121/122/110
f 117/118/106 121/122/110 122/123/111
f 118/116/104 122/123/111 123/119/107
f 119/120/108 123/119/107 124/124/112
f 120/121/109 119/120/108 124/124/112
f 121/122/110 120/121/109 124/124/112
f 122/123/111 121/122/110 124/124/112
f 123/119/107 122/123/111 124/124/112
f 125/125/113 126/126/114 127/127/115
f 126/126/114 125/125/113 130/128/116
f 125/125/113 127/127/115 128/129/117
f 125/125/113 128/129/117 129/130/118
f 125/125/113 129/130/118 130/128/116
f 126/126/114 130/128/116 135/131/119
f 127/127/115 126/126/114 131/132/120
f 128/129/117 127/127/115 132/133/121
f 129/130/118 128/129/117 133/134/122
f 130/128/116 129/130/118 134/135/123
f 126/126/114 135/131/119 131/132/120
f 127/127/115 131/132/120 132/133/121
f 128/129/117 132/133/121 133/134/122
f 129/130/118 133/134/122 134/135/123
f 130/128/116 134/135/123 135/131/119
f 131/132/120 135/131/119 136/136/124
f 132/133/121 131/132/120 136/136/124
f 133/134/122 132/133/121 136/136/124
f 134/135/123 133/134/122 136/136/124
f 135/131/119 134/135/123 136/136/124
f 137/137/125 138/138/126 139/139/127
f 138/138/126 137/137/125 142/140/128
f 137/137/125 139/139/127 140/141/129
f 137/137/125 140/141/129 141/142/130
f 137/137/125 141/142/130 142/140/128
f 138/138/126 142/140/128 147/143/131
f 139/139/127 138/138/126 143/144/132
f 140/141/129 139/139/127 144/145/133
f 141/142/130 140/141/129 145/146/134
f 142/140/128 141/142/130 146/147/135
f 138/138/126 147/143/131 143/144/132
f 139/139/127 143/144/132 144/145/133
f 140/141/129 144/145/133 145/146/134
f 141/142/130 145/146/134 146/147/135
f 142/140/128 146/147/135 147/143/131
f 143/144/132 147/143/131 148/148/136
f 144/145/133 143/144/132 148/148/136
f 145/146/134 144/145/133 148/148/136
f 146/147/135 145/146/134 148/148/136
f 147/143/131 146/147/135 148/148/136
f 150/149/137 149/150/137 155/151/138 156/152/138
f 156/152/138 155/151/138 157/153/139 158/154/140
f 150/149/137 158/154/140 157/153/139 149/150/137
f 152/155/141 151/156/141 159/157/142 160/158/142
f 160/158/142 159/157/142 161/159/143 162/160/143
f 152/155/141 162/160/143 161/159/143 151/156/141
f 154/161/144 153/162/144 163/163/145 164/164/145
f 164/164/145 163/163/145 165/165/146 166/166/146
f 154/161/144 166/166/146 165/165/146 153/162/144
